<svg xmlns="http://www.w3.org/2000/svg" xmlns:xlink="http://www.w3.org/1999/xlink" width="1280" zoomAndPan="magnify" viewBox="0 0 960 540.000001" height="720" preserveAspectRatio="xMidYMid meet" version="1.0"><defs><g/><clipPath id="dd8ea84e92"><path d="M 238.957031 0 L 959.113281 0 L 959.113281 254.023438 L 238.957031 254.023438 Z M 238.957031 0 " clip-rule="nonzero"/></clipPath><clipPath id="2059792863"><path d="M 279.378906 0 L 918.6875 0 C 929.410156 0 939.691406 4.257812 947.273438 11.839844 C 954.855469 19.421875 959.113281 29.703125 959.113281 40.425781 L 959.113281 213.597656 C 959.113281 224.316406 954.855469 234.601562 947.273438 242.179688 C 939.691406 249.761719 929.410156 254.023438 918.6875 254.023438 L 279.378906 254.023438 C 268.660156 254.023438 258.378906 249.761719 250.796875 242.179688 C 243.214844 234.601562 238.957031 224.316406 238.957031 213.597656 L 238.957031 40.425781 C 238.957031 29.703125 243.214844 19.421875 250.796875 11.839844 C 258.378906 4.257812 268.660156 0 279.378906 0 Z M 279.378906 0 " clip-rule="nonzero"/></clipPath><clipPath id="696eeadf05"><path d="M 266.402344 0 L 459.246094 0 L 459.246094 254 L 266.402344 254 Z M 266.402344 0 " clip-rule="nonzero"/></clipPath><clipPath id="ed0004b85a"><path d="M 0.886719 0 L 266.816406 0 L 266.816406 254.023438 L 0.886719 254.023438 Z M 0.886719 0 " clip-rule="nonzero"/></clipPath><clipPath id="cb1fc099fd"><path d="M 41.3125 0 L 225.976562 0 C 236.699219 0 246.980469 4.257812 254.5625 11.839844 C 262.140625 19.421875 266.402344 29.703125 266.402344 40.425781 L 266.402344 213.597656 C 266.402344 224.316406 262.140625 234.601562 254.5625 242.179688 C 246.980469 249.761719 236.699219 254.023438 225.976562 254.023438 L 41.3125 254.023438 C 30.589844 254.023438 20.308594 249.761719 12.726562 242.179688 C 5.144531 234.601562 0.886719 224.316406 0.886719 213.597656 L 0.886719 40.425781 C 0.886719 29.703125 5.144531 19.421875 12.726562 11.839844 C 20.308594 4.257812 30.589844 0 41.3125 0 Z M 41.3125 0 " clip-rule="nonzero"/></clipPath><clipPath id="44f95cdc3d"><path d="M 75.4375 0 L 268.28125 0 L 268.28125 254 L 75.4375 254 Z M 75.4375 0 " clip-rule="nonzero"/></clipPath><clipPath id="82c88b7840"><path d="M 82 109 L 230 109 L 230 216.859375 L 82 216.859375 Z M 82 109 " clip-rule="nonzero"/></clipPath><clipPath id="15fb0abb68"><path d="M 82 37.191406 L 230.382812 37.191406 L 230.382812 141 L 82 141 Z M 82 37.191406 " clip-rule="nonzero"/></clipPath><clipPath id="1fa40019cb"><path d="M 37.238281 77 L 136 77 L 136 176 L 37.238281 176 Z M 37.238281 77 " clip-rule="nonzero"/></clipPath><clipPath id="c931313da6"><path d="M 45.324219 77.695312 L 127.519531 77.695312 C 132.011719 77.695312 135.605469 81.28125 135.605469 85.765625 L 135.605469 167.835938 C 135.605469 172.320312 132.011719 175.910156 127.519531 175.910156 L 45.324219 175.910156 C 40.832031 175.910156 37.238281 172.320312 37.238281 167.835938 L 37.238281 85.765625 C 37.238281 81.28125 40.832031 77.695312 45.324219 77.695312 Z M 45.324219 77.695312 " clip-rule="nonzero"/></clipPath><linearGradient x1="3.486514" gradientTransform="matrix(4.491682, 0, 0, -4.484669, 37.238557, 225.688369)" y1="35.013047" x2="18.445178" gradientUnits="userSpaceOnUse" y2="9.105257" id="a70e550f77"><stop stop-opacity="1" stop-color="rgb(9.399414%, 53.29895%, 30.999756%)" offset="0"/><stop stop-opacity="1" stop-color="rgb(9.373474%, 53.262329%, 30.955505%)" offset="0.03125"/><stop stop-opacity="1" stop-color="rgb(9.260559%, 53.100586%, 30.758667%)" offset="0.0625"/><stop stop-opacity="1" stop-color="rgb(9.085083%, 52.845764%, 30.453491%)" offset="0.09375"/><stop stop-opacity="1" stop-color="rgb(8.909607%, 52.592468%, 30.14679%)" offset="0.125"/><stop stop-opacity="1" stop-color="rgb(8.734131%, 52.337646%, 29.841614%)" offset="0.15625"/><stop stop-opacity="1" stop-color="rgb(8.557129%, 52.084351%, 29.534912%)" offset="0.1875"/><stop stop-opacity="1" stop-color="rgb(8.381653%, 51.829529%, 29.22821%)" offset="0.21875"/><stop stop-opacity="1" stop-color="rgb(8.206177%, 51.576233%, 28.923035%)" offset="0.25"/><stop stop-opacity="1" stop-color="rgb(8.030701%, 51.322937%, 28.616333%)" offset="0.28125"/><stop stop-opacity="1" stop-color="rgb(7.853699%, 51.068115%, 28.311157%)" offset="0.3125"/><stop stop-opacity="1" stop-color="rgb(7.678223%, 50.814819%, 28.004456%)" offset="0.34375"/><stop stop-opacity="1" stop-color="rgb(7.502747%, 50.559998%, 27.697754%)" offset="0.366038"/><stop stop-opacity="1" stop-color="rgb(7.415771%, 50.43335%, 27.545166%)" offset="0.375"/><stop stop-opacity="1" stop-color="rgb(7.327271%, 50.306702%, 27.392578%)" offset="0.40625"/><stop stop-opacity="1" stop-color="rgb(7.151794%, 50.05188%, 27.085876%)" offset="0.4375"/><stop stop-opacity="1" stop-color="rgb(6.974792%, 49.798584%, 26.780701%)" offset="0.46875"/><stop stop-opacity="1" stop-color="rgb(6.799316%, 49.543762%, 26.473999%)" offset="0.5"/><stop stop-opacity="1" stop-color="rgb(6.672668%, 49.276733%, 26.211548%)" offset="0.515625"/><stop stop-opacity="1" stop-color="rgb(6.593323%, 48.983765%, 25.985718%)" offset="0.53125"/><stop stop-opacity="1" stop-color="rgb(6.513977%, 48.678589%, 25.75531%)" offset="0.546875"/><stop stop-opacity="1" stop-color="rgb(6.436157%, 48.371887%, 25.523376%)" offset="0.5625"/><stop stop-opacity="1" stop-color="rgb(6.358337%, 48.066711%, 25.292969%)" offset="0.578125"/><stop stop-opacity="1" stop-color="rgb(6.280518%, 47.76001%, 25.061035%)" offset="0.59375"/><stop stop-opacity="1" stop-color="rgb(6.202698%, 47.453308%, 24.830627%)" offset="0.609375"/><stop stop-opacity="1" stop-color="rgb(6.123352%, 47.148132%, 24.598694%)" offset="0.625"/><stop stop-opacity="1" stop-color="rgb(6.045532%, 46.841431%, 24.368286%)" offset="0.633962"/><stop stop-opacity="1" stop-color="rgb(6.007385%, 46.688843%, 24.252319%)" offset="0.640625"/><stop stop-opacity="1" stop-color="rgb(5.967712%, 46.536255%, 24.136353%)" offset="0.65625"/><stop stop-opacity="1" stop-color="rgb(5.889893%, 46.229553%, 23.904419%)" offset="0.671875"/><stop stop-opacity="1" stop-color="rgb(5.812073%, 45.922852%, 23.674011%)" offset="0.6875"/><stop stop-opacity="1" stop-color="rgb(5.732727%, 45.617676%, 23.442078%)" offset="0.703125"/><stop stop-opacity="1" stop-color="rgb(5.654907%, 45.310974%, 23.21167%)" offset="0.71875"/><stop stop-opacity="1" stop-color="rgb(5.577087%, 45.005798%, 22.979736%)" offset="0.734375"/><stop stop-opacity="1" stop-color="rgb(5.499268%, 44.699097%, 22.749329%)" offset="0.75"/><stop stop-opacity="1" stop-color="rgb(5.419922%, 44.393921%, 22.517395%)" offset="0.765625"/><stop stop-opacity="1" stop-color="rgb(5.342102%, 44.087219%, 22.286987%)" offset="0.78125"/><stop stop-opacity="1" stop-color="rgb(5.264282%, 43.780518%, 22.055054%)" offset="0.796875"/><stop stop-opacity="1" stop-color="rgb(5.186462%, 43.475342%, 21.824646%)" offset="0.8125"/><stop stop-opacity="1" stop-color="rgb(5.108643%, 43.16864%, 21.592712%)" offset="0.828125"/><stop stop-opacity="1" stop-color="rgb(5.029297%, 42.863464%, 21.362305%)" offset="0.84375"/><stop stop-opacity="1" stop-color="rgb(4.951477%, 42.556763%, 21.130371%)" offset="0.859375"/><stop stop-opacity="1" stop-color="rgb(4.873657%, 42.250061%, 20.899963%)" offset="0.875"/><stop stop-opacity="1" stop-color="rgb(4.795837%, 41.944885%, 20.66803%)" offset="0.890625"/><stop stop-opacity="1" stop-color="rgb(4.718018%, 41.638184%, 20.437622%)" offset="0.90625"/><stop stop-opacity="1" stop-color="rgb(4.638672%, 41.333008%, 20.205688%)" offset="0.921875"/><stop stop-opacity="1" stop-color="rgb(4.560852%, 41.026306%, 19.975281%)" offset="0.9375"/><stop stop-opacity="1" stop-color="rgb(4.483032%, 40.719604%, 19.743347%)" offset="0.953125"/><stop stop-opacity="1" stop-color="rgb(4.405212%, 40.414429%, 19.512939%)" offset="0.96875"/><stop stop-opacity="1" stop-color="rgb(4.33197%, 40.130615%, 19.297791%)" offset="1"/></linearGradient><clipPath id="18b0032c56"><path d="M 158 37.191406 L 230.382812 37.191406 L 230.382812 83 L 158 83 Z M 158 37.191406 " clip-rule="nonzero"/></clipPath><clipPath id="fdd07dae30"><path d="M 158 127 L 230.382812 127 L 230.382812 172 L 158 172 Z M 158 127 " clip-rule="nonzero"/></clipPath></defs><g clip-path="url(#dd8ea84e92)"><g clip-path="url(#2059792863)"><path fill="#171719" d="M 238.957031 0 L 959.34375 0 L 959.34375 254.023438 L 238.957031 254.023438 Z M 238.957031 0 " fill-opacity="1" fill-rule="nonzero"/></g></g><g clip-path="url(#696eeadf05)"><path fill="#171719" d="M 266.402344 0 L 459.246094 0 L 459.246094 253.859375 L 266.402344 253.859375 Z M 266.402344 0 " fill-opacity="1" fill-rule="nonzero"/></g><g clip-path="url(#ed0004b85a)"><g clip-path="url(#cb1fc099fd)"><path fill="#97c45e" d="M 0.886719 0 L 266.816406 0 L 266.816406 254.023438 L 0.886719 254.023438 Z M 0.886719 0 " fill-opacity="1" fill-rule="nonzero"/></g></g><g clip-path="url(#44f95cdc3d)"><path fill="#97c45e" d="M 75.4375 0 L 268.28125 0 L 268.28125 253.859375 L 75.4375 253.859375 Z M 75.4375 0 " fill-opacity="1" fill-rule="nonzero"/></g><g fill="#ffffff" fill-opacity="1"><g transform="translate(308.338352, 164.479233)"><g><path d="M 93.53125 -76.609375 L 93.53125 0 L 74.875 0 L 74.875 -45.953125 L 57.734375 0 L 42.671875 0 L 25.4375 -46.0625 L 25.4375 0 L 6.765625 0 L 6.765625 -76.609375 L 28.8125 -76.609375 L 50.3125 -23.578125 L 71.59375 -76.609375 Z M 93.53125 -76.609375 "/></g></g></g><g fill="#ffffff" fill-opacity="1"><g transform="translate(418.237425, 164.479233)"><g><path d="M 31.546875 0.875 C 26.234375 0.875 21.5 -0.03125 17.34375 -1.84375 C 13.195312 -3.664062 9.921875 -6.160156 7.515625 -9.328125 C 5.117188 -12.492188 3.78125 -16.039062 3.5 -19.96875 L 21.9375 -19.96875 C 22.15625 -17.863281 23.132812 -16.15625 24.875 -14.84375 C 26.625 -13.53125 28.773438 -12.875 31.328125 -12.875 C 33.648438 -12.875 35.445312 -13.328125 36.71875 -14.234375 C 38 -15.148438 38.640625 -16.335938 38.640625 -17.796875 C 38.640625 -19.535156 37.726562 -20.820312 35.90625 -21.65625 C 34.082031 -22.5 31.132812 -23.429688 27.0625 -24.453125 C 22.695312 -25.460938 19.054688 -26.53125 16.140625 -27.65625 C 13.234375 -28.789062 10.722656 -30.578125 8.609375 -33.015625 C 6.503906 -35.453125 5.453125 -38.742188 5.453125 -42.890625 C 5.453125 -46.378906 6.414062 -49.5625 8.34375 -52.4375 C 10.269531 -55.3125 13.109375 -57.585938 16.859375 -59.265625 C 20.609375 -60.941406 25.066406 -61.78125 30.234375 -61.78125 C 37.867188 -61.78125 43.882812 -59.882812 48.28125 -56.09375 C 52.6875 -52.3125 55.21875 -47.289062 55.875 -41.03125 L 38.640625 -41.03125 C 38.347656 -43.144531 37.414062 -44.816406 35.84375 -46.046875 C 34.28125 -47.285156 32.226562 -47.90625 29.6875 -47.90625 C 27.5 -47.90625 25.820312 -47.488281 24.65625 -46.65625 C 23.5 -45.820312 22.921875 -44.675781 22.921875 -43.21875 C 22.921875 -41.46875 23.847656 -40.15625 25.703125 -39.28125 C 27.554688 -38.414062 30.445312 -37.546875 34.375 -36.671875 C 38.882812 -35.503906 42.554688 -34.359375 45.390625 -33.234375 C 48.234375 -32.109375 50.726562 -30.289062 52.875 -27.78125 C 55.019531 -25.269531 56.128906 -21.90625 56.203125 -17.6875 C 56.203125 -14.113281 55.203125 -10.925781 53.203125 -8.125 C 51.203125 -5.320312 48.328125 -3.117188 44.578125 -1.515625 C 40.835938 0.078125 36.492188 0.875 31.546875 0.875 Z M 31.546875 0.875 "/></g></g></g><g fill="#ffffff" fill-opacity="1"><g transform="translate(488.848312, 164.479233)"><g><path d="M 15.5 0.875 C 12.226562 0.875 9.550781 -0.0859375 7.46875 -2.015625 C 5.394531 -3.941406 4.359375 -6.328125 4.359375 -9.171875 C 4.359375 -12.078125 5.394531 -14.507812 7.46875 -16.46875 C 9.550781 -18.4375 12.226562 -19.421875 15.5 -19.421875 C 18.695312 -19.421875 21.332031 -18.4375 23.40625 -16.46875 C 25.476562 -14.507812 26.515625 -12.078125 26.515625 -9.171875 C 26.515625 -6.328125 25.476562 -3.941406 23.40625 -2.015625 C 21.332031 -0.0859375 18.695312 0.875 15.5 0.875 Z M 15.5 0.875 "/></g></g></g><g fill="#ffffff" fill-opacity="1"><g transform="translate(529.338291, 164.479233)"><g/></g></g><g fill="#ffffff" fill-opacity="1"><g transform="translate(562.188892, 164.479233)"><g><path d="M 25.4375 -61.671875 L 25.4375 -46.171875 L 50.421875 -46.171875 L 50.421875 -31.765625 L 25.4375 -31.765625 L 25.4375 -14.953125 L 53.703125 -14.953125 L 53.703125 0 L 6.765625 0 L 6.765625 -76.609375 L 53.703125 -76.609375 L 53.703125 -61.671875 Z M 25.4375 -61.671875 "/></g></g></g><g fill="#ffffff" fill-opacity="1"><g transform="translate(630.944525, 164.479233)"><g><path d="M 42.78125 0 L 31.109375 -16.921875 L 21.28125 0 L 1.09375 0 L 21.171875 -31.109375 L 0.546875 -60.90625 L 21.5 -60.90625 L 33.171875 -44.09375 L 43 -60.90625 L 63.1875 -60.90625 L 42.78125 -30.234375 L 63.734375 0 Z M 42.78125 0 "/></g></g></g><g fill="#ffffff" fill-opacity="1"><g transform="translate(704.829432, 164.479233)"><g><path d="M 3.0625 -30.453125 C 3.0625 -36.785156 4.351562 -42.316406 6.9375 -47.046875 C 9.519531 -51.773438 13.117188 -55.410156 17.734375 -57.953125 C 22.359375 -60.503906 27.648438 -61.78125 33.609375 -61.78125 C 41.253906 -61.78125 47.640625 -59.773438 52.765625 -55.765625 C 57.898438 -51.765625 61.265625 -46.128906 62.859375 -38.859375 L 43 -38.859375 C 41.320312 -43.515625 38.082031 -45.84375 33.28125 -45.84375 C 29.863281 -45.84375 27.132812 -44.515625 25.09375 -41.859375 C 23.0625 -39.203125 22.046875 -35.398438 22.046875 -30.453125 C 22.046875 -25.503906 23.0625 -21.703125 25.09375 -19.046875 C 27.132812 -16.390625 29.863281 -15.0625 33.28125 -15.0625 C 38.082031 -15.0625 41.320312 -17.390625 43 -22.046875 L 62.859375 -22.046875 C 61.265625 -14.910156 57.882812 -9.304688 52.71875 -5.234375 C 47.550781 -1.160156 41.179688 0.875 33.609375 0.875 C 27.648438 0.875 22.359375 -0.394531 17.734375 -2.9375 C 13.117188 -5.488281 9.519531 -9.128906 6.9375 -13.859375 C 4.351562 -18.585938 3.0625 -24.117188 3.0625 -30.453125 Z M 3.0625 -30.453125 "/></g></g></g><g fill="#ffffff" fill-opacity="1"><g transform="translate(780.569639, 164.479233)"><g><path d="M 64.171875 -31.4375 C 64.171875 -29.6875 64.0625 -27.863281 63.84375 -25.96875 L 21.609375 -25.96875 C 21.898438 -22.1875 23.117188 -19.296875 25.265625 -17.296875 C 27.410156 -15.296875 30.046875 -14.296875 33.171875 -14.296875 C 37.828125 -14.296875 41.066406 -16.257812 42.890625 -20.1875 L 62.75 -20.1875 C 61.738281 -16.1875 59.90625 -12.582031 57.25 -9.375 C 54.59375 -6.175781 51.257812 -3.664062 47.25 -1.84375 C 43.25 -0.03125 38.773438 0.875 33.828125 0.875 C 27.867188 0.875 22.5625 -0.394531 17.90625 -2.9375 C 13.25 -5.488281 9.609375 -9.128906 6.984375 -13.859375 C 4.367188 -18.585938 3.0625 -24.117188 3.0625 -30.453125 C 3.0625 -36.785156 4.351562 -42.316406 6.9375 -47.046875 C 9.519531 -51.773438 13.140625 -55.410156 17.796875 -57.953125 C 22.453125 -60.503906 27.796875 -61.78125 33.828125 -61.78125 C 39.722656 -61.78125 44.960938 -60.539062 49.546875 -58.0625 C 54.128906 -55.59375 57.710938 -52.0625 60.296875 -47.46875 C 62.878906 -42.882812 64.171875 -37.539062 64.171875 -31.4375 Z M 45.078125 -36.34375 C 45.078125 -39.539062 43.984375 -42.085938 41.796875 -43.984375 C 39.617188 -45.878906 36.890625 -46.828125 33.609375 -46.828125 C 30.484375 -46.828125 27.847656 -45.914062 25.703125 -44.09375 C 23.554688 -42.269531 22.226562 -39.6875 21.71875 -36.34375 Z M 45.078125 -36.34375 "/></g></g></g><g fill="#ffffff" fill-opacity="1"><g transform="translate(857.510297, 164.479233)"><g><path d="M 25.4375 -80.765625 L 25.4375 0 L 6.765625 0 L 6.765625 -80.765625 Z M 25.4375 -80.765625 "/></g></g></g><g clip-path="url(#82c88b7840)"><path fill="#185c37" d="M 158.515625 122.539062 L 82.15625 109.085938 L 82.15625 208.648438 C 82.15625 213.132812 85.75 216.71875 90.242188 216.71875 L 221.847656 216.71875 C 226.339844 216.71875 229.933594 213.132812 229.933594 208.648438 L 229.933594 171.871094 Z M 158.515625 122.539062 " fill-opacity="1" fill-rule="nonzero"/></g><g clip-path="url(#15fb0abb68)"><path fill="#21a366" d="M 158.515625 37.332031 L 90.242188 37.332031 C 85.75 37.332031 82.15625 40.921875 82.15625 45.40625 L 82.15625 82.179688 L 158.515625 127.027344 L 198.9375 140.480469 L 230.382812 127.027344 L 230.382812 82.179688 Z M 158.515625 37.332031 " fill-opacity="1" fill-rule="nonzero"/></g><path fill="#107c41" d="M 82.15625 82.179688 L 158.515625 82.179688 L 158.515625 127.027344 L 82.15625 127.027344 Z M 82.15625 82.179688 " fill-opacity="1" fill-rule="nonzero"/><path fill="#000000" d="M 136.953125 73.210938 L 82.15625 73.210938 L 82.15625 185.328125 L 136.953125 185.328125 C 141.445312 185.328125 145.039062 181.738281 145.039062 177.253906 L 145.039062 81.28125 C 145.039062 76.796875 141.445312 73.210938 136.953125 73.210938 Z M 136.953125 73.210938 " fill-opacity="0.1" fill-rule="nonzero"/><path fill="#000000" d="M 132.460938 77.695312 L 82.15625 77.695312 L 82.15625 189.8125 L 132.460938 189.8125 C 136.953125 189.8125 140.546875 186.222656 140.546875 181.738281 L 140.546875 85.765625 C 140.546875 81.28125 136.953125 77.695312 132.460938 77.695312 Z M 132.460938 77.695312 " fill-opacity="0.2" fill-rule="nonzero"/><path fill="#000000" d="M 132.460938 77.695312 L 82.15625 77.695312 L 82.15625 180.839844 L 132.460938 180.839844 C 136.953125 180.839844 140.546875 177.253906 140.546875 172.769531 L 140.546875 85.765625 C 140.546875 81.28125 136.953125 77.695312 132.460938 77.695312 Z M 132.460938 77.695312 " fill-opacity="0.2" fill-rule="nonzero"/><path fill="#000000" d="M 127.96875 77.695312 L 82.15625 77.695312 L 82.15625 180.839844 L 127.96875 180.839844 C 132.460938 180.839844 136.054688 177.253906 136.054688 172.769531 L 136.054688 85.765625 C 136.054688 81.28125 132.460938 77.695312 127.96875 77.695312 Z M 127.96875 77.695312 " fill-opacity="0.2" fill-rule="nonzero"/><g clip-path="url(#1fa40019cb)"><g clip-path="url(#c931313da6)"><path fill="url(#a70e550f77)" d="M 37.238281 175.910156 L 37.238281 77.695312 L 135.605469 77.695312 L 135.605469 175.910156 Z M 37.238281 175.910156 " fill-rule="nonzero"/></g></g><path fill="#ffffff" d="M 62.839844 153.933594 L 80.359375 127.027344 L 64.1875 100.117188 L 76.765625 100.117188 L 85.300781 117.160156 C 86.199219 118.953125 86.648438 119.851562 87.097656 120.746094 C 87.546875 119.402344 88.445312 118.054688 88.894531 117.160156 L 98.324219 100.117188 L 110.003906 100.117188 L 93.832031 126.578125 L 110.453125 153.484375 L 97.875 153.484375 L 87.996094 134.648438 C 87.546875 133.753906 87.097656 132.855469 86.648438 131.957031 C 86.199219 132.855469 85.75 133.753906 85.300781 134.199219 L 75.417969 153.933594 Z M 62.839844 153.933594 " fill-opacity="1" fill-rule="nonzero"/><g clip-path="url(#18b0032c56)"><path fill="#33c481" d="M 222.296875 37.332031 L 158.515625 37.332031 L 158.515625 82.179688 L 230.382812 82.179688 L 230.382812 45.40625 C 230.382812 40.921875 226.789062 37.332031 222.296875 37.332031 Z M 222.296875 37.332031 " fill-opacity="1" fill-rule="nonzero"/></g><g clip-path="url(#fdd07dae30)"><path fill="#107c41" d="M 158.515625 127.027344 L 230.382812 127.027344 L 230.382812 171.871094 L 158.515625 171.871094 Z M 158.515625 127.027344 " fill-opacity="1" fill-rule="nonzero"/></g></svg>